# xmcd
#
# Track frame offsets:
#	150
#	20889
#	37555
#	58103
#	73834
#	101877
#	124939
#	150312
#	162138
#	187337
#	207416
#	231185
#	249227
#	264947
#	289918
#
# Disc length: 4114 seconds
#
# Revision: 1
# Processed by: cddbd v1.5.2PL0 Copyright (c) Steve Scherf et al.
# Submitted via: EZCDAudioConverter 7.1.7.1
#
DISCID=d710100f
DTITLE=小娟 - 微风山谷 Dts-Es5.1-CD1
DYEAR=2009
DGENRE=DTSES
TTITLE0=往事随风
TTITLE1=海上花
TTITLE2=矜持
TTITLE3=爱的路上千万里
TTITLE4=不再让你孤单
TTITLE5=爱的箴言
TTITLE6=难道真的我能忘记你
TTITLE7=我的家
TTITLE8=空白
TTITLE9=Flower
TTITLE10=细说往事
TTITLE11=梦田
TTITLE12=500 Miles
TTITLE13=山谷里的居民
TTITLE14=野百合也有春天
EXTD=
EXTT0=
EXTT1=
EXTT2=
EXTT3=
EXTT4=
EXTT5=
EXTT6=
EXTT7=
EXTT8=
EXTT9=
EXTT10=
EXTT11=
EXTT12=
EXTT13=
EXTT14=
PLAYORDER=
